<?xml version="1.0" standalone="no"?>
<!DOCTYPE svg PUBLIC "-//W3C//DTD SVG 20010904//EN"
 "http://www.w3.org/TR/2001/REC-SVG-20010904/DTD/svg10.dtd">
<svg version="1.0" xmlns="http://www.w3.org/2000/svg"
 width="1024.000000pt" height="1024.000000pt" viewBox="0 0 1024.000000 1024.000000"
 preserveAspectRatio="xMidYMid meet">

<g transform="translate(0.000000,1024.000000) scale(0.100000,-0.100000)"
fill="#000000" stroke="none">
<path d="M4210 6680 c-567 -16 -1384 -57 -1580 -80 -85 -9 -174 -16 -345 -25
-219 -12 -929 -80 -946 -91 -13 -7 -95 -268 -126 -400 -23 -96 -31 -115 -48
-119 -11 -2 -112 -11 -225 -20 -229 -19 -278 -32 -304 -84 -9 -16 -16 -42 -16
-57 0 -16 59 -177 131 -358 72 -182 178 -449 235 -592 117 -296 133 -363 115
-481 -6 -38 -96 -337 -201 -663 -104 -327 -190 -608 -190 -623 0 -46 26 -83
71 -101 23 -9 54 -15 68 -12 47 10 746 66 816 66 14 0 25 4 25 9 0 5 -20 44
-45 85 -82 139 -106 193 -89 200 8 3 146 1 307 -4 161 -5 390 -11 509 -13
l217 -3 -40 54 c-21 31 -39 58 -39 62 0 4 48 10 108 14 59 4 137 9 173 13 l65
6 61 -74 61 -73 2097 -2 2096 -1 60 73 60 74 52 0 c66 0 290 -20 296 -26 3 -2
-15 -32 -39 -66 l-43 -61 419 9 c477 10 593 10 647 0 l37 -7 -36 -67 c-21 -37
-52 -92 -71 -123 -18 -31 -33 -61 -33 -66 0 -4 143 -19 318 -32 174 -12 377
-29 450 -37 148 -15 183 -9 216 37 34 50 29 68 -271 999 -90 276 -96 301 -100
398 -3 60 -1 121 6 148 6 25 58 163 115 307 57 144 156 395 221 557 64 162
123 308 131 324 19 39 18 63 -6 101 -41 66 -46 68 -354 95 -120 10 -220 20
-221 22 -1 2 -17 61 -34 131 -49 194 -109 375 -129 386 -9 5 -55 12 -102 16
-47 3 -195 17 -330 30 -135 13 -326 29 -425 35 -171 11 -437 31 -665 50 -112
9 -602 34 -1020 50 -344 14 -1731 20 -2110 10z m363 -674 c177 -63 305 -206
343 -385 17 -80 20 -857 4 -961 -21 -135 -118 -279 -236 -350 -100 -60 -173
-79 -302 -80 -181 0 -300 48 -414 168 -62 65 -101 134 -123 219 -23 87 -22
956 1 1034 51 173 170 297 344 356 96 33 287 32 383 -1z m1358 8 c179 -53 310
-179 361 -347 15 -51 21 -99 22 -185 l1 -117 -175 0 -175 0 -5 105 c-6 118
-19 150 -77 190 -37 26 -117 37 -178 26 -43 -8 -103 -59 -121 -103 -18 -41
-20 -855 -3 -900 56 -149 312 -149 368 0 6 16 11 71 11 123 l0 94 -75 0 -75 0
0 155 0 155 256 0 256 0 -4 -277 c-4 -266 -5 -281 -30 -349 -62 -174 -190
-292 -368 -339 -71 -19 -239 -19 -310 0 -86 23 -178 74 -239 135 -65 64 -100
119 -133 210 -23 65 -23 68 -23 535 l0 470 24 74 c55 166 168 279 341 338 83
29 266 32 351 7z m-2941 -749 l0 -715 313 -2 312 -3 0 -170 0 -170 -487 -3
-488 -2 0 890 0 890 175 0 175 0 0 -715z m4357 680 c175 -63 285 -179 337
-354 23 -79 24 -946 1 -1036 -46 -174 -187 -313 -374 -369 -88 -26 -242 -22
-340 9 -167 53 -280 162 -343 331 -22 57 -22 73 -26 503 -2 302 1 467 8 512
37 219 222 398 444 429 90 12 221 1 293 -25z m1320 -2621 c-3 -3 -12 -4 -19
-1 -8 3 -5 6 6 6 11 1 17 -2 13 -5z"/>
<path d="M4285 5674 c-48 -26 -73 -54 -90 -98 -14 -35 -15 -99 -13 -461 3
-380 5 -423 21 -453 54 -98 216 -122 308 -45 60 51 59 42 59 513 0 486 1 479
-73 528 -51 34 -164 42 -212 16z"/>
<path d="M7052 5609 c-97 -49 -105 -93 -100 -588 4 -403 5 -411 66 -463 99
-83 264 -53 313 58 19 41 20 65 17 472 -3 477 0 452 -74 509 -51 39 -158 45
-222 12z"/>
<path d="M7234 2938 c-41 -46 -238 -208 -355 -292 -281 -201 -556 -338 -861
-430 -149 -45 -397 -101 -531 -121 -244 -35 -585 -36 -812 -1 l-90 14 -107
-106 c-60 -59 -108 -109 -108 -113 0 -8 215 -47 325 -58 503 -54 1005 26 1460
232 418 188 753 455 1069 850 39 47 46 66 10 25z"/>
</g>
</svg>
